<svg id="Layer_1" data-name="Layer 1" xmlns="http://www.w3.org/2000/svg" viewBox="0 0 150 140"><defs><style>.cls-1{fill:#2f6f7a;}</style></defs><path class="cls-1" d="M99.44811,121H64.08422c-.017-.28894-.04748-.56574-.04761-.84256q-.00411-8.96286.00809-17.92572a1.8115,1.8115,0,0,0-.53341-1.36511c-5.79471-6.09645-9.41729-13.4193-11.93314-21.344C48.3102,69.22876,45.093,58.91883,41.85421,48.61578c-.06661-.21189-.13072-.42455-.24685-.80223a29.091,29.091,0,0,1,2.99956-1.18687,8.39665,8.39665,0,0,1,8.98,2.37226,11.46724,11.46724,0,0,1,2.369,4.07316q2.332,6.51,4.67321,13.01658c.111.30785.23174.70228.47413.85156a1.77238,1.77238,0,0,0,1.2459.33072c.35246-.11409.6202-.61326.82986-.99584.11386-.20775.034-.52411.034-.79148q.00095-17.02278.00233-34.04554A6.438,6.438,0,0,1,73.31506,25.988c.18331.12434.36472.25148.6979.48149a6.74654,6.74654,0,0,1,1.89059-5.61886,6.43432,6.43432,0,0,1,9.88346,1.048,8.20456,8.20456,0,0,1,1.03264,5.21707c.30715-.21209.49583-.34985.69169-.47649a6.25346,6.25346,0,0,1,6.65916-.39388,6.11044,6.11044,0,0,1,3.4174,5.77548c.00856,1.56065.00065,3.12139.00305,4.68209.00034.21527.01763.43051.03148.746.30893-.20217.539-.35971.77574-.50656a6.23044,6.23044,0,0,1,6.66064-.26582,6.12349,6.12349,0,0,1,3.3173,5.711q.02584,17.758.0021,35.51605a33.81369,33.81369,0,0,1-8.48888,23.0613,1.94823,1.94823,0,0,0-.42291,1.18561c-.02643,5.99743-.01831,11.995-.01832,17.99255ZM95.55187,58.93194c0-.37662,0-.66539,0-.95415q.00032-13.04384,0-26.08769a4.35775,4.35775,0,0,0-7.89347-2.53827,4.99824,4.99824,0,0,0-.82934,3.16136q.0179,12.77631.00647,25.55265V58.919h-2.071c0-.33624,0-.62166,0-.90708q.0008-16.28626-.02125-32.57244a4.71332,4.71332,0,0,0-.53369-2.0951,4.222,4.222,0,0,0-4.92678-2.14049,4.3874,4.3874,0,0,0-3.24172,4.31446q.00052,16.28778.00046,32.57554v.83493H74.006v-.8927q0-13.01046-.00087-26.02091c-.00005-.35661.00271-.71432-.02234-1.06964a4.357,4.357,0,0,0-8.70107.41446q.01148,17.19118.00371,34.38238c-.00027,1.98449-1.01087,3.35292-2.66811,3.63381a3.40161,3.40161,0,0,1-3.89253-2.50051c-1.5917-4.44535-3.17554-8.89356-4.784-13.33286-1.58142-4.36473-5.17021-6.22968-9.2087-4.83645-.47849.16508-.60385.33709-.43967.856,3.19052,10.08539,6.30332,20.19572,9.55153,30.26238A50.20018,50.20018,0,0,0,65.616,100.11242a1.5996,1.5996,0,0,1,.49706,1.234q-.02373,8.36142-.00992,16.72293l0,.90389h.83729c1.76148,0,3.52356-.02622,5.28414.01375.64645.01466.871-.12236.86748-.83521-.03189-6.42146-.02379-12.84316-.00837-19.26473a1.60406,1.60406,0,0,0-.47184-1.18441c-1.80119-1.94822-3.59488-3.90389-5.355-5.889a1.85916,1.85916,0,0,1-.42568-1.11291c-.03849-2.31827-.03224-4.63764-.00885-6.95632a.77777.77777,0,0,0-.61207-.90552,4.74138,4.74138,0,1,1,3.193.03624.675.675,0,0,0-.53133.76689c.01642,2.09581-.01414,4.19226.0274,6.28737a1.87974,1.87974,0,0,0,.43576,1.11815q2.57277,2.90339,5.22428,5.73653a1.9771,1.9771,0,0,1,.56317,1.48454c-.019,6.64453-.00307,13.28917-.02633,19.93367-.0022.62866.185.80033.7907.7832,1.38133-.039,2.76453-.01029,4.14694-.01459.21179-.00066.4235-.03055.65419-.04839V92.453c-.10418-.04685-.18277-.08887-.26578-.11855a4.79535,4.79535,0,0,1-3.43033-4.531,4.72016,4.72016,0,0,1,3.32237-4.52993c.35326-.1294.40861-.31875.4068-.63953-.01023-1.806-.00486-3.61214-.00482-5.41822,0-.71018,0-1.42035,0-2.12449-.24642-.08709-.43538-.15006-.62161-.22026a4.744,4.744,0,1,1,6.3097-5.39087,4.71348,4.71348,0,0,1-3.1056,5.41474.68548.68548,0,0,0-.53688.76858c.01752,2.27418.0221,4.54873-.00276,6.82278a.75.75,0,0,0,.612.84625,4.7269,4.7269,0,0,1,.08343,8.85446.91236.91236,0,0,0-.6971,1.05726q.02743,12.40836.01284,24.81682a1.48624,1.48624,0,0,0,.01916.52955c.06065.14894.23053.35876.355.36048,1.71.0237,3.42037.016,5.22152.016v-.92215q0-9.96688-.00951-19.93374a1.60346,1.60346,0,0,1,.46306-1.18828q2.72622-2.94525,5.40164-5.937a1.65723,1.65723,0,0,0,.38376-.99333c.03451-2.09537.00551-4.19172.02665-6.28745a.7336.7336,0,0,0-.58313-.851,4.743,4.743,0,1,1,3.13373.02844.67029.67029,0,0,0-.52423.76928c.01557,2.3411-.00584,4.68251.018,7.02348a1.66952,1.66952,0,0,1-.48976,1.24494c-1.77261,1.9139-3.53731,3.83572-5.266,5.789a1.93868,1.93868,0,0,0-.46143,1.17c-.02816,6.44379-.02036,12.88772-.01834,19.33163.00008.23608.024.47215.03969.76239,2.10193,0,4.12874-.02006,6.15472.01232.60079.00961.79521-.14621.79215-.77907-.026-5.3735.00836-10.74739-.03572-16.12067a3.3926,3.3926,0,0,1,.91785-2.49806,30.42257,30.42257,0,0,0,7.944-20.28307c.12992-7.44281.0561-14.88921.06606-22.334q.00983-7.35807.0029-14.71617a4.352,4.352,0,0,0-7.89467-2.519,4.95386,4.95386,0,0,0-.83769,3.09945q.00055,7.65912-.00142,15.31822c-.00011.257-.02275.51393-.03528.77888ZM79.06214,70.41122a2.693,2.693,0,1,0,5.3858-.0082,2.69309,2.69309,0,0,0-5.3858.0082ZM65.162,78.40877a2.68983,2.68983,0,1,0,5.37944-.0453,2.68987,2.68987,0,0,0-5.37944.0453Zm27.79673-.08136a2.69775,2.69775,0,0,0,5.39422.11726,2.69787,2.69787,0,0,0-5.39422-.11726Zm-13.8966,9.465a2.69309,2.69309,0,1,0,5.38577-.06383,2.69316,2.69316,0,0,0-5.38577.06383Z"/></svg>