<svg id="Layer_1" data-name="Layer 1" xmlns="http://www.w3.org/2000/svg" viewBox="0 0 150 140"><defs><style>.cls-1{fill:#2f6f7a;}</style></defs><path class="cls-1" d="M93.65144,112.91219H46.43568A10.97372,10.97372,0,1,1,49.541,91.46841a14.45173,14.45173,0,0,1,7.24387-15.4625c.28409-.15759.57412-.3075.868-.44571.28409-.13811.57412-.26059.8679-.37485a14.61522,14.61522,0,0,1,17.58506,5.53146A20.88849,20.88849,0,0,1,91.13036,71.293c.288-.03355.57613-.06106.8679-.08483.288-.02148.576-.03565.86827-.04534.26014-.00959.52074-.02541.78491-.02541a20.88739,20.88739,0,1,1,0,41.77478ZM58.52072,70.31238c0-8.33088,5.93018-14.72038,13.88629-16.43864,7.17487-1.55053,15.85876.60155,21.24443-5.68941A25.72519,25.72519,0,0,0,98.027,40.77674a36.89162,36.89162,0,0,0,1.96469-8.92292l.00393-.0532a5.18405,5.18405,0,0,1,5.03056-4.70889c.05548,0,.11069,0,.16608.002a5.05658,5.05658,0,0,1,4.86831,5.03239,47.56623,47.56623,0,0,1-1.41634,11.99034,37.45282,37.45282,0,0,1-5.26712,11.40443,34.10064,34.10064,0,0,1-9.27191,9.11222c-.00411.00411-.01179.006-.01581.00978a6.96709,6.96709,0,0,0-2.90773,4.89619A22.52241,22.52241,0,0,0,76.05633,77.8248,16.3321,16.3321,0,0,0,58.52072,73.337V70.31238Zm35.13072-.909c-.23674,0-.46937.0117-.70209.01947a5.29144,5.29144,0,0,1,2.13836-3.35946,35.67788,35.67788,0,0,0,9.71788-9.55582,39.0592,39.0592,0,0,0,5.51163-11.9333,48.94179,48.94179,0,0,0,1.4795-12.44811,6.76521,6.76521,0,0,0-6.5415-6.76646c-.07861-.00191-.15384-.004-.22906-.004a6.95272,6.95272,0,0,0-6.7543,6.26555l-.008.05329a34.87772,34.87772,0,0,1-1.85811,8.48673,23.87053,23.87053,0,0,1-4.07582,6.8947c-3.25507,3.80946-8.07265,4.07362-13.17012,4.35589a45.96254,45.96254,0,0,0-7.11965.76525c-9.124,1.973-15.25529,9.2604-15.25529,18.13533v3.74053A16.39967,16.39967,0,0,0,47.53466,88.7934c0,.16563.00393.33135.00988.49707a10.45583,10.45583,0,0,0-1.10886-.05548,12.70463,12.70463,0,1,0,0,25.40926H93.65144a22.62046,22.62046,0,0,0,0-45.24091ZM77.11372,27.75847a10.054,10.054,0,1,1-10.05481,10.053,10.05327,10.05327,0,0,1,10.05481-10.053Zm0,21.84213A11.78916,11.78916,0,1,0,65.32484,37.81145,11.80135,11.80135,0,0,0,77.11372,49.6006Z"/><path class="cls-1" d="M93.65139,115.13192H46.43568a13.19221,13.19221,0,1,1,0-26.38442c.21191,0,.41478.00508.61129.01492a16.98745,16.98745,0,0,1,9.25021-15.01178V70.31247c0-9.10958,6.28523-16.58912,15.63989-18.612a46.23282,46.23282,0,0,1,7.18445-.77478c5.01-.27763,9.72055-.53859,12.83776-4.18661A23.38693,23.38693,0,0,0,95.95144,39.984a34.38607,34.38607,0,0,0,1.82734-8.35987l.0108-.07477a7.43856,7.43856,0,0,1,7.23652-6.68126c.07127,0,.1427.00174.21651.00349a7.26068,7.26068,0,0,1,7.04175,7.25255,49.46,49.46,0,0,1-1.49527,12.57267,39.55314,39.55314,0,0,1-5.5822,12.0879,36.16185,36.16185,0,0,1-9.85038,9.68547,4.85927,4.85927,0,0,0-1.78068,2.44577l.07556-.00032a23.10816,23.10816,0,0,1,0,46.21631ZM46.43568,89.72276a12.217,12.217,0,1,0,0,24.4339H93.65139a22.1329,22.1329,0,0,0,0-44.26579c-.173,0-.34382.00667-.51414.013l-.77288.027.10477-.59271a5.81634,5.81634,0,0,1,2.33418-3.67088,35.22291,35.22291,0,0,0,9.601-9.43689,38.57062,38.57062,0,0,0,5.4425-11.78472,48.49866,48.49866,0,0,0,1.46226-12.31949,6.28158,6.28158,0,0,0-6.07078-6.27919c-.0854-.00207-.14873-.00365-.21222-.00365a6.46044,6.46044,0,0,0-6.26936,5.82855l-.01063.0746a35.26431,35.26431,0,0,1-1.88259,8.58274,24.374,24.374,0,0,1-4.16327,7.044c-3.38785,3.96454-8.30067,4.23677-13.5019,4.52487a45.66953,45.66953,0,0,0-7.0554.75573C63.24846,54.577,57.27244,61.67354,57.27244,70.31247v4.04581l-.27461.13333a16.00321,16.00321,0,0,0-8.9756,14.30192c0,.15937.00381.31938.00968.47906l.02048.56224-.55938-.05969A9.94406,9.94406,0,0,0,46.43568,89.72276Zm47.21571,23.67706H46.43568a11.46,11.46,0,0,1,0-22.9199,10.46971,10.46971,0,0,1,2.50022.32064,13.9836,13.9836,0,0,1-.153-2.007,15.148,15.148,0,0,1,7.76431-13.21332c.30842-.17112.61017-.326.89812-.46128.26508-.12889.5608-.25683.89859-.38826A15.10186,15.10186,0,0,1,76.0978,79.853,21.31143,21.31143,0,0,1,91.072,70.809c.29541-.03461.58906-.06254.88669-.087.29842-.0219.593-.03651.89208-.04635l.20207-.00857c.19842-.00857.39747-.01714.59859-.01714a21.37494,21.37494,0,1,1,0,42.74988ZM46.43568,91.45518a10.48469,10.48469,0,0,0,0,20.96938H93.65139a20.39968,20.39968,0,1,0,0-40.79936c-.18683,0-.37176.00825-.55605.01619l-.21032.00889c-.28794.0092-.56954.02317-.85081.04412q-.42359.03429-.84717.08318a20.35,20.35,0,0,0-14.67177,9.204l-.40461.62573-.41144-.62128a14.127,14.127,0,0,0-16.99849-5.34743c-.3162.12286-.58811.24033-.83478.36-.27413.12889-.55652.274-.84478.43366a13.96349,13.96349,0,0,0-7.0008,14.9467l.14572.78192-.76288-.22476A10.36169,10.36169,0,0,0,46.43568,91.45518Zm29.64165-12.879-.38319-.42509A15.84446,15.84446,0,0,0,58.682,73.79731l-.6489.22731V70.31247c0-8.27416,5.73505-15.07194,14.271-16.91548a44.92009,44.92009,0,0,1,6.92683-.74033c5.37029-.296,10.44278-.57589,14.05-4.78948A25.14234,25.14234,0,0,0,97.57259,40.6a36.08517,36.08517,0,0,0,1.93417-8.79719l.00254-.03857a5.70147,5.70147,0,0,1,5.69982-5.1579,5.52312,5.52312,0,0,1,5.339,5.51775A47.72989,47.72989,0,0,1,109.11635,44.239a37.78027,37.78027,0,0,1-5.33806,11.559,34.43587,34.43587,0,0,1-9.36323,9.21482l-.06858.04572a6.49219,6.49219,0,0,0-2.68006,4.53328l-.04222.38953-.3897.04254a21.93462,21.93462,0,0,0-14.79828,8.10654ZM63.91038,71.93187A16.86925,16.86925,0,0,1,76.034,77.08564a22.88648,22.88648,0,0,1,14.71574-7.98685,7.49412,7.49412,0,0,1,3.035-4.83757l.06905-.04635a33.46992,33.46992,0,0,0,9.12228-8.97117,36.80041,36.80041,0,0,0,5.1979-11.25581,46.75325,46.75325,0,0,0,1.39892-11.86171,4.55024,4.55024,0,0,0-4.39756-4.54518c-.04969-.00143-.09953-.00064-.14921-.00159a4.715,4.715,0,0,0-4.54551,4.27264l-.00254.03809a37.07411,37.07411,0,0,1-1.99354,9.05545A26.12757,26.12757,0,0,1,94.022,48.50117c-3.8785,4.53042-9.39879,4.83487-14.73733,5.12932a44.19652,44.19652,0,0,0-6.7746.71986c-8.0759,1.744-13.50174,8.15876-13.50174,15.96212V72.664A16.7385,16.7385,0,0,1,63.91038,71.93187ZM77.1137,50.08819a12.2768,12.2768,0,1,1,12.27505-12.2768A12.29053,12.29053,0,0,1,77.1137,50.08819Zm0-23.57833A11.30154,11.30154,0,1,0,88.41349,37.81139,11.31411,11.31411,0,0,0,77.1137,26.50986Zm0,21.84432A10.54168,10.54168,0,1,1,87.65664,37.81139,10.55456,10.55456,0,0,1,77.1137,48.35418Zm0-20.10809a9.56642,9.56642,0,1,0,9.56768,9.5653A9.57715,9.57715,0,0,0,77.1137,28.24609Z"/></svg>