<svg id="Layer_1" data-name="Layer 1" xmlns="http://www.w3.org/2000/svg" viewBox="0 0 150 140"><defs><style>.cls-1{fill:#2f6f7a;}</style></defs><path class="cls-1" d="M102.56705,48.77887q.504.81885.94132,1.67214a1.00435,1.00435,0,0,1-1.31545,1.36713,16.05383,16.05383,0,0,0-2.21877-.924,2.18189,2.18189,0,0,0-1.77408,2.08118.769.769,0,0,0,.2729.54588l9.00712,7.67648c.034.03411.06815.06822.1023.06822a2.103,2.103,0,0,0,2.14941-.51176.46869.46869,0,0,0,.1023-.13646c0-.03413.03415-.06824.03415-.10235l3.51415-11.32706a.83918.83918,0,0,0-.03415-.58,2.2844,2.2844,0,0,0-2.22753-.96158.98187.98187,0,0,0-.61381.396c-.36378.50052-1.06182,1.63178-1.66222,2.62806a1.00241,1.00241,0,0,1-1.77461-.10755q-.23157-.52383-.4771-1.03375A29.01357,29.01357,0,0,0,82.0965,33.49911v3.16195A25.9,25.9,0,0,1,102.56705,48.77887Z"/><path class="cls-1" d="M108.15061,61.55711a1.31354,1.31354,0,0,1-.6235-.13572.36785.36785,0,0,1-.16223-.10905l-8.99735-7.66748a.95234.95234,0,0,1-.32985-.66954,1.87268,1.87268,0,0,1,.50509-1.39416,2.13092,2.13092,0,0,1,1.42511-.84939c.09588-.0019.25874.0008,2.29307.93876a.84182.84182,0,0,0,1.10288-1.14527c-.29492-.57319-.60953-1.13209-.93494-1.66083A25.74418,25.74418,0,0,0,82.08715,36.82335l-.15334-.00873V33.32835l.17048.00842A29.18556,29.18556,0,0,1,106.73852,49.457q.2481.51525.48,1.0405a.83989.83989,0,0,0,1.4867.08937c.55017-.91288,1.28638-2.112,1.6702-2.63974a1.14079,1.14079,0,0,1,.71652-.46033,2.43742,2.43742,0,0,1,2.40291,1.05129,1.00853,1.00853,0,0,1,.04191.70145l-3.50865,11.30836a.29156.29156,0,0,1-.03143.09111v.03809l-.01715.013a.62268.62268,0,0,1-.13143.17778A2.46262,2.46262,0,0,1,108.15061,61.55711Zm-.53525-.45367h.01111l.03842.02239a1.94127,1.94127,0,0,0,1.94353-.47748.40165.40165,0,0,0,.06953-.08317.336.336,0,0,1,.02762-.07112l3.52167-11.35391a.67385.67385,0,0,0-.02984-.4716,2.14615,2.14615,0,0,0-2.04735-.86192.81735.81735,0,0,0-.51176.33175c-.37683.51842-1.10764,1.70893-1.65432,2.61625a1.16329,1.16329,0,0,1-1.074.5624,1.14146,1.14146,0,0,1-.98859-.68812q-.23049-.52143-.47462-1.02891A28.86074,28.86074,0,0,0,82.2589,33.67042V36.508a26.06936,26.06936,0,0,1,20.44587,12.18473l.00064.00095c.33016.53605.6489,1.10225.94732,1.68306a1.16681,1.16681,0,0,1-1.528,1.58908,14.05436,14.05436,0,0,0-2.15339-.90907,1.83777,1.83777,0,0,0-1.17717.73034,1.5921,1.5921,0,0,0-.43334,1.16256.62925.62925,0,0,0,.227.45668l8.99767,7.6678Zm.014.01159Z"/><path class="cls-1" d="M118.70477,66.96358a6.69176,6.69176,0,0,0-4.50356-1.70589H82.0965v2.9h32.10471a3.71828,3.71828,0,0,1,2.52474.9553,2.81619,2.81619,0,0,1,.98941,2.08117v37.42706a2.83145,2.83145,0,0,1-.98941,2.11528,3.69512,3.69512,0,0,1-2.52474.92118H82.0965V113.588a1.00382,1.00382,0,0,1-1.00376,1.00377h33.10847a6.69176,6.69176,0,0,0,4.50356-1.70589,5.76707,5.76707,0,0,0,1.94468-4.26469V71.19416A5.69392,5.69392,0,0,0,118.70477,66.96358Z"/><path class="cls-1" d="M114.20123,114.75422H81.09284v-.32509a.84178.84178,0,0,0,.841-.841v-2.09307h32.26742a3.52552,3.52552,0,0,0,2.41307-.87684,2.66018,2.66018,0,0,0,.93844-1.99687V71.19415a2.65869,2.65869,0,0,0-.93463-1.95972,3.5842,3.5842,0,0,0-2.41688-.91415H81.93381V65.09512h32.26742a6.8153,6.8153,0,0,1,4.61217,1.7475,5.83908,5.83908,0,0,1,1.99846,4.35153v37.42723a5.91184,5.91184,0,0,1-1.99751,4.38454A6.81548,6.81548,0,0,1,114.20123,114.75422Zm-32.30139-.32509h32.30139a6.49208,6.49208,0,0,0,4.39407-1.66321,5.59123,5.59123,0,0,0,1.89147-4.14454V71.19415a5.515,5.515,0,0,0-1.88956-4.10882l-.00191-.00159a6.49082,6.49082,0,0,0-4.39407-1.66353H82.2589v2.575h31.94233a3.85976,3.85976,0,0,1,2.63625.99955,2.97937,2.97937,0,0,1,1.04034,2.19941v37.42723a2.97822,2.97822,0,0,1-1.04383,2.23656,3.851,3.851,0,0,1-2.63276.96224H82.2589v1.768A1.16249,1.16249,0,0,1,81.89984,114.42913Z"/><path class="cls-1" d="M33.76618,114.5918h1.55506a5.53026,5.53026,0,0,1-2.46243-.58078A1.00159,1.00159,0,0,0,33.76618,114.5918Z"/><path class="cls-1" d="M35.3213,114.75422H33.766a1.1701,1.1701,0,0,1-1.05462-.6743l-.1962-.42.41557.2054a5.35459,5.35459,0,0,0,2.39053.56382Z"/><path class="cls-1" d="M76.97886,112.64709a6.69132,6.69132,0,0,0,1.70592-4.50352v-76.287A6.69132,6.69132,0,0,0,76.97886,27.353a5.6936,5.6936,0,0,0-4.23053-1.94471H35.32124A5.76683,5.76683,0,0,0,31.05649,27.353a6.69161,6.69161,0,0,0-1.70585,4.50352v76.287a6.69161,6.69161,0,0,0,1.70585,4.50352,6.12955,6.12955,0,0,0,1.80232,1.36393,5.53026,5.53026,0,0,0,2.46243.58078H72.74833A5.69363,5.69363,0,0,0,76.97886,112.64709Zm-43.77295-1.9447a3.96026,3.96026,0,0,1-.92119-2.55882v-76.287a3.86619,3.86619,0,0,1,.92119-2.5247,2.83148,2.83148,0,0,1,2.11533-.98941H72.74833a2.81609,2.81609,0,0,1,2.08112.98941,3.71763,3.71763,0,0,1,.95526,2.5247v76.287a3.80646,3.80646,0,0,1-.95526,2.55882,2.90627,2.90627,0,0,1-2.08112.95529H35.32124A2.922,2.922,0,0,1,33.20591,110.70239Z"/><path class="cls-1" d="M72.7482,114.75422H35.3213a5.67483,5.67483,0,0,1-2.53466-.59748,6.27723,6.27723,0,0,1-1.85021-1.39971,6.817,6.817,0,0,1-1.74829-4.61344v-76.287a6.81583,6.81583,0,0,1,1.74829-4.61312,5.91224,5.91224,0,0,1,4.38487-1.99767H72.7482a5.83815,5.83815,0,0,1,4.35217,1.99942,6.81262,6.81262,0,0,1,1.747,4.61137v76.287a6.813,6.813,0,0,1-1.748,4.61248A5.83864,5.83864,0,0,1,72.7482,114.75422ZM35.3213,25.57087a5.59111,5.59111,0,0,0-4.14486,1.89179,6.49106,6.49106,0,0,0-1.66321,4.39391v76.287a6.49205,6.49205,0,0,0,1.66321,4.39407,5.945,5.945,0,0,0,1.75433,1.32765,5.35459,5.35459,0,0,0,2.39053.56382H72.7482a5.51506,5.51506,0,0,0,4.109-1.88957l.00158-.0019a6.4902,6.4902,0,0,0,1.66353-4.39407v-76.287a6.4905,6.4905,0,0,0-1.66353-4.39407,5.51521,5.51521,0,0,0-4.11057-1.89163Zm37.4269,86.24931H35.3213a3.062,3.062,0,0,1-2.2337-1.00637l-.006-.00667a4.13468,4.13468,0,0,1-.95938-2.66355v-76.287a4.053,4.053,0,0,1,.96224-2.63276,2.978,2.978,0,0,1,2.23688-1.044H72.7482a2.98438,2.98438,0,0,1,2.20291,1.04383,3.857,3.857,0,0,1,.99621,2.63292v76.287a3.98484,3.98484,0,0,1-.99653,2.667A3.06967,3.06967,0,0,1,72.7482,111.82018Zm-39.4206-1.22606a2.73863,2.73863,0,0,0,1.9937.901H72.7482a2.74162,2.74162,0,0,0,1.9629-.90415,3.65732,3.65732,0,0,0,.91114-2.44735v-76.287a3.5808,3.5808,0,0,0-.91082-2.41323,2.663,2.663,0,0,0-1.96322-.93843H35.3213a2.65633,2.65633,0,0,0-1.9937.93478,3.71887,3.71887,0,0,0-.88034,2.41688v76.287A3.80922,3.80922,0,0,0,33.3276,110.59412Z"/><path class="cls-1" d="M43.83089,101.76356h20.3736a1.00376,1.00376,0,0,1,1.00376,1.00376v1.13129a1.00379,1.00379,0,0,1-1.00379,1.00379H43.83086a1.00376,1.00376,0,0,1-1.00376-1.00376v-1.13129A1.00379,1.00379,0,0,1,43.83089,101.76356Z"/><path class="cls-1" d="M64.20451,105.06478H43.8307a1.1675,1.1675,0,0,1-1.16606-1.166v-1.13146a1.16757,1.16757,0,0,1,1.16606-1.16638H64.20451a1.16764,1.16764,0,0,1,1.16638,1.16638v1.13146A1.16757,1.16757,0,0,1,64.20451,105.06478ZM43.8307,101.926a.84206.84206,0,0,0-.841.84129v1.13146a.84178.84178,0,0,0,.841.841H64.20451a.84206.84206,0,0,0,.84129-.841v-1.13146a.84233.84233,0,0,0-.84129-.84129Z"/></svg>