<svg id="Layer_1" data-name="Layer 1" xmlns="http://www.w3.org/2000/svg" viewBox="0 0 150 140"><defs><style>.cls-1{fill:#2f6f7a;}</style></defs><path class="cls-1" d="M109.04736,61.89721H75.9985V45.40146a22.904,22.904,0,1,0-45.80791,0v7.60261a1.60027,1.60027,0,0,0,1.60055,1.60055h9.62672a1.60031,1.60031,0,0,0,1.60055-1.60055V45.477a10.0764,10.0764,0,0,1,20.1528,0v16.4202h-.06829a10.774,10.774,0,0,0-10.762,10.76152v34.08255a10.774,10.774,0,0,0,10.762,10.76151h45.94444a10.77393,10.77393,0,0,0,10.76205-10.76151V72.65873A10.774,10.774,0,0,0,109.04736,61.89721ZM53.09478,32.19953A13.29245,13.29245,0,0,0,39.81731,45.477v5.92651H33.39169V45.40146a19.70286,19.70286,0,1,1,39.40571,0V61.89721H66.37231V45.477A13.29247,13.29247,0,0,0,53.09478,32.19953Zm63.51353,74.54175a7.56934,7.56934,0,0,1-7.561,7.56041H63.10292a7.56936,7.56936,0,0,1-7.56094-7.56041V72.65873a7.5694,7.5694,0,0,1,7.56094-7.56042h45.94444a7.56938,7.56938,0,0,1,7.561,7.56042Z"/><path class="cls-1" d="M94.49393,83.11966a8.41887,8.41887,0,1,0-13.66614,6.547l-3.11825,11.79627a1.60063,1.60063,0,0,0,1.54736,2.00954H92.89338a1.60063,1.60063,0,0,0,1.54741-2.00954L91.32308,89.66666A8.421,8.421,0,0,0,94.49393,83.11966Zm-6.55276,6.27923,2.87389,10.87248H81.33575l2.87389-10.87248a1.60041,1.60041,0,0,0-.74137-1.79177,5.1604,5.1604,0,0,1-2.61082-4.48746,5.21769,5.21769,0,1,1,10.43538,0,5.16036,5.16036,0,0,1-2.61029,4.48746A1.60048,1.60048,0,0,0,87.94117,89.39889Z"/></svg>