<svg id="Layer_1" data-name="Layer 1" xmlns="http://www.w3.org/2000/svg" viewBox="0 0 150 140"><defs><style>.cls-1{fill:#2f6f7a;}</style></defs><path class="cls-1" d="M97.88934,121.42868c-5.40648,0-11.02026-2.00735-15.8318-3.99248a42.795,42.795,0,0,0-15.66227-3.29928c-2.62832-.11334-4.52709-.19508-5.19346-1.96354a6.19755,6.19755,0,0,1,.02572-3.57468,9.27293,9.27293,0,0,1,2.29339-4.1128c1.1924-1.2259,3.42357-2.68482,7.29286-2.68482q.69717,0,1.43845.063L54.06514,83.67447A6.52411,6.52411,0,0,1,63.292,74.44838L74.03989,85.19625a6.53792,6.53792,0,0,1,1.675-2.85674,6.14376,6.14376,0,0,1,4.38232-1.9348,6.32334,6.32334,0,0,1,2.27593.43921,6.524,6.524,0,0,1,10.36246-4.20867,6.38956,6.38956,0,0,1,10.54628-2.39053L115.06751,86.032a18.80752,18.80752,0,0,1,5.0979,12.05488c.22032,4.12439-.79431,10.31786-6.87286,16.39674h0c-4.508,4.508-9.34244,6.77682-14.77907,6.936Q98.202,121.42868,97.88934,121.42868Zm-33.68619-10.711a21.96923,21.96923,0,0,0,2.3318.17128,45.75882,45.75882,0,0,1,16.76262,3.54214c11.685,4.82123,19.55886,5.89125,27.69651-2.24624h0c5.23219-5.23218,6.11-10.46024,5.9249-13.92461a15.63569,15.63569,0,0,0-4.15025-9.92959l-11.785-11.78647a3.14073,3.14073,0,0,0-5.17536,3.28928,1.62549,1.62549,0,0,1-2.67625,1.70687l-2.00735-2.00735a3.27806,3.27806,0,0,0-4.628.0054,3.29177,3.29177,0,0,0-.54478,3.91056,1.62533,1.62533,0,0,1-2.568,1.94132,4.97179,4.97179,0,0,0-3.28675-1.73464,2.93612,2.93612,0,0,0-2.08163.98065,3.25992,3.25992,0,0,0-.34763,4.2182,1.62544,1.62544,0,0,1-2.46958,2.09751L60.99356,76.74716A3.27331,3.27331,0,0,0,56.363,81.37489l22.02686,22.02988a1.62555,1.62555,0,0,1-1.63464,2.70069,20.351,20.351,0,0,0-5.94141-1.05351,6.65436,6.65436,0,0,0-4.96043,1.69845A5.97516,5.97516,0,0,0,64.20315,110.71763Z"/><path class="cls-1" d="M98.23823,59.34247a1.62552,1.62552,0,0,1-1.14955-2.77467L108.788,44.86721a3.88,3.88,0,0,0,.00159-5.61029,3.93986,3.93986,0,0,0-5.54457-.05238,1.6254,1.6254,0,0,1-2.40578-2.17354,3.95328,3.95328,0,0,0-.3073-5.22235,3.38733,3.38733,0,0,0-3.00357-1.10478A6.56573,6.56573,0,0,0,94.01528,32.709a1.62541,1.62541,0,0,1-2.55911-1.9583A3.95717,3.95717,0,0,0,85.223,25.982L83.43,27.77951a1.62546,1.62546,0,0,1-2.74959-1.44178,3.81754,3.81754,0,0,0-6.45189-3.4023L62.32184,34.84253c-4.96361,4.967-6.70206,9.17085-5.47092,13.22936a1.62475,1.62475,0,0,1-.40064,1.61607l-6.5246,6.58428a1.6255,1.6255,0,1,1-2.30926-2.28831l5.87474-5.92855c-1.59147-7.38271,4.47979-13.45793,6.53158-15.51115L71.931,20.6357a7.06667,7.06667,0,0,1,11.60821,2.49958A7.20288,7.20288,0,0,1,95.1934,28.007a7.73584,7.73584,0,0,1,1.88068-.52208,6.60866,6.60866,0,0,1,5.756,2.02449,7.16991,7.16991,0,0,1,2.09053,5.43458,7.22233,7.22233,0,0,1,6.16776,2.01433,7.14151,7.14151,0,0,1-.00127,10.20754L99.38778,58.86627A1.62089,1.62089,0,0,1,98.23823,59.34247Z"/><path class="cls-1" d="M72.87891,80.60249A1.62543,1.62543,0,0,1,71.73,77.82735l7.2954-7.2916a1.62506,1.62506,0,0,1,1.12765-.47557c5.83283-.07667,18.67123-3.71151,22.25766-5.62267,1.38162-.73684,2.36831-2.77165,2.70641-5.58235a18.45885,18.45885,0,0,0-.85367-8.1194,1.62532,1.62532,0,1,1,3.04642-1.134,21.58367,21.58367,0,0,1,1.03463,9.64165c-.47366,3.93692-2.03783,6.80032-4.40423,8.06273C100.1478,69.327,87.44782,72.968,80.86894,73.2893l-6.84111,6.83746A1.61975,1.61975,0,0,1,72.87891,80.60249Z"/><path class="cls-1" d="M57.27633,97.98591a1.62486,1.62486,0,0,1-1.57464-1.22241,10.27818,10.27818,0,0,0-1.74385-3.59167H53.955a3.85179,3.85179,0,0,1-2.92578-1.25035L36.18472,77.07685a4.23386,4.23386,0,0,1-1.28987-2.958,10.10008,10.10008,0,0,0-3.81374-1.76862,1.62553,1.62553,0,0,1-.79779-2.73609L45.82209,54.07362a1.62539,1.62539,0,0,1,.83113-.44462,13.19672,13.19672,0,0,1,6.78714.94939,4.14,4.14,0,0,1,1.15241-.164,4.0506,4.0506,0,0,1,2.88388,1.19225L72.504,70.63384a4.09541,4.09541,0,0,1,1.02066,4.06661,13.78771,13.78771,0,0,1,1.00891,6.08649,1.62566,1.62566,0,0,1-.47429,1.09l-.86479.86621L70.8941,80.44629l.40033-.40112a9.64824,9.64824,0,0,0-.97971-4.51375,1.6249,1.6249,0,0,1,.0181-1.58178.8443.8443,0,0,0-.12635-1.0159L55.17818,57.90545a.82527.82527,0,0,0-.58541-.24016.89294.89294,0,0,0-.43842.1154,1.626,1.626,0,0,1-1.66575-.03984,10.355,10.355,0,0,0-4.75726-.97907l-13.31142,13.313a13.1042,13.1042,0,0,1,3.29119,2.15974,1.62517,1.62517,0,0,1,.446,1.72289.91648.91648,0,0,0,.27175.76764l.0381.03683,14.88,14.88018c.0146.01429.02857.02889.04222.04382.21017.226.30382.287,1.08447.19127a1.6255,1.6255,0,0,1,1.40257.521,13.07645,13.07645,0,0,1,2.03815,3.02642l1.30542-1.30463,2.29783,2.29942-3.09245,3.09086A1.62508,1.62508,0,0,1,57.27633,97.98591Z"/><rect class="cls-1" x="33.1886" y="63.13714" width="24.12379" height="3.25075" transform="translate(-32.5395 50.96006) rotate(-44.99604)"/><rect class="cls-1" x="54.30308" y="88.79764" width="2.88325" height="3.25063" transform="translate(-47.41169 65.07455) rotate(-44.54101)"/><rect class="cls-1" x="68.8834" y="74.31118" width="3.36299" height="3.25097" transform="translate(-33.02577 72.09533) rotate(-44.97626)"/></svg>