<svg id="Layer_1" data-name="Layer 1" xmlns="http://www.w3.org/2000/svg" viewBox="0 0 150 140"><defs><style>.cls-1{fill:#2f6f7a;}</style></defs><g id="_3-Handshake" data-name="3-Handshake"><path class="cls-1" d="M41.86625,85.822a8.86824,8.86824,0,0,1-6.27078-15.1302l6.82841-6.82873a8.8788,8.8788,0,0,1,12.54173,0h0a8.87846,8.87846,0,0,1,0,12.54156L48.137,83.23309A8.80494,8.80494,0,0,1,41.86625,85.822Zm6.82842-21.30272a5.5997,5.5997,0,0,0-3.972,1.64257l-6.82841,6.82842a5.61738,5.61738,0,0,0,7.944,7.94431l6.82857-6.82841a5.61473,5.61473,0,0,0-3.97215-9.58689Z"/><path class="cls-1" d="M52.109,96.06481a8.85958,8.85958,0,0,1-6.27078-15.13019l6.82857-6.82841a8.88881,8.88881,0,0,1,12.54156,0h0a8.8892,8.8892,0,0,1,0,12.54124l-6.82857,6.82841A8.8049,8.8049,0,0,1,52.109,96.06481ZM58.9376,74.76813a5.5764,5.5764,0,0,0-3.972,1.63654L48.137,83.23309a5.61738,5.61738,0,0,0,7.944,7.94431L62.9096,84.349a5.63879,5.63879,0,0,0,0-7.94431h0A5.5764,5.5764,0,0,0,58.9376,74.76813Z"/><path class="cls-1" d="M62.35181,106.30759A8.86823,8.86823,0,0,1,56.081,91.1774L62.9096,84.349a8.88883,8.88883,0,0,1,12.54156,0h0a8.88921,8.88921,0,0,1,0,12.54125l-6.82857,6.82841A8.805,8.805,0,0,1,62.35181,106.30759Zm6.82857-21.29668a5.57642,5.57642,0,0,0-3.972,1.63654l-6.82857,6.82841a5.61738,5.61738,0,0,0,7.944,7.94432l6.82857-6.82842a5.63881,5.63881,0,0,0,0-7.94431h0A5.57642,5.57642,0,0,0,69.18038,85.01091Z"/><path class="cls-1" d="M72.59459,116.55481a8.86393,8.86393,0,0,1-6.27078-15.13463l6.82857-6.82842a8.889,8.889,0,0,1,12.54172,0h0a8.88921,8.88921,0,0,1,0,12.54125l-6.82857,6.82873A8.84053,8.84053,0,0,1,72.59459,116.55481Zm6.82857-21.30113a5.57641,5.57641,0,0,0-3.972,1.63655l-6.82857,6.82841A5.61748,5.61748,0,1,0,76.5669,111.663l6.82841-6.82841a5.63879,5.63879,0,0,0,0-7.94431h0A5.57676,5.57676,0,0,0,79.42316,95.25368Z"/><path class="cls-1" d="M115.9802,76.17356a1.62026,1.62026,0,0,1-1.14939-.47621L85.25171,46.11857,76.15832,55.212A8.86823,8.86823,0,0,1,63.61676,42.6704L73.85954,32.42746a30.59649,30.59649,0,0,1,43.27005,43.26989A1.62026,1.62026,0,0,1,115.9802,76.17356ZM85.25171,42.19435a1.62076,1.62076,0,0,1,1.14939.47605l29.54529,29.54529A27.34591,27.34591,0,0,0,76.15832,34.72624L65.91554,44.96918a5.61725,5.61725,0,0,0,7.944,7.944L84.10232,42.6704A1.62075,1.62075,0,0,1,85.25171,42.19435Z"/><path class="cls-1" d="M87.68414,106.32886a8.8846,8.8846,0,0,1-2.41815-.36445,1.62517,1.62517,0,0,1-.98478-2.348l.01222-.02445a1.6251,1.6251,0,0,1,1.8702-.79557,5.57042,5.57042,0,0,0,5.477-9.30593L72.15505,74.00493a1.62542,1.62542,0,0,1-.003-2.2956l.02936-.02953a1.626,1.626,0,0,1,1.15019-.47906h.00222a1.6247,1.6247,0,0,1,1.14939.4762L93.96889,91.16279a5.59644,5.59644,0,0,0,7.91432-7.91478L82.39751,63.76263a1.62543,1.62543,0,0,1-.003-2.29561l.02936-.02952a1.6255,1.6255,0,0,1,1.15019-.47922h.00222a1.62587,1.62587,0,0,1,1.14939.476l19.48585,19.486a5.5971,5.5971,0,1,0,7.91495-7.91605l-28.03-28.02923a1.62562,1.62562,0,0,1-.01524-2.28338l.00588-.006a1.62556,1.62556,0,0,1,2.314-.01539l28.26605,28.26637c.01778.01778.03508.03587.05207.0546a8.86455,8.86455,0,0,1-8.03638,14.7267,8.97182,8.97182,0,0,1,.12413,1.487,8.86537,8.86537,0,0,1-10.37008,8.75481,8.916,8.916,0,0,1-2.46815,7.77383A8.82242,8.82242,0,0,1,87.68414,106.32886Z"/><path class="cls-1" d="M34.0402,76.18816a1.62537,1.62537,0,0,1-1.14924-.47588A30.617,30.617,0,0,1,76.18213,32.40539a1.62562,1.62562,0,0,1,.00032,2.29911c-.02159.02158-.05016.04825-.07635.07174a1.6329,1.6329,0,0,1-2.25244-.043A27.32453,27.32453,0,0,0,35.219,73.384a1.62542,1.62542,0,0,1,.003,2.29561l-.02936.02952a1.62577,1.62577,0,0,1-1.15019.47906Z"/></g></svg>