<svg id="Layer_1" data-name="Layer 1" xmlns="http://www.w3.org/2000/svg" viewBox="0 0 150 140"><defs><style>.cls-1{fill:#2f6f7a;}</style></defs><path class="cls-1" d="M74.99988,78.19141A21.07662,21.07662,0,0,0,54.2605,95.436a4.6352,4.6352,0,0,0,4.55725,5.47021H91.182A4.63153,4.63153,0,0,0,95.73926,95.436,21.07667,21.07667,0,0,0,74.99988,78.19141ZM92.245,97.15894a1.37983,1.37983,0,0,1-1.063.49646H58.81775a1.38445,1.38445,0,0,1-1.36035-1.63025,17.8427,17.8427,0,0,1,35.08478,0A1.37692,1.37692,0,0,1,92.245,97.15894Z"/><path class="cls-1" d="M35.88562,67.10706h18.752a4.6358,4.6358,0,0,0,4.63062-4.63062V43.72424a4.6357,4.6357,0,0,0-4.63062-4.63049h-18.752a4.63566,4.63566,0,0,0-4.63043,4.63049v18.7522A4.63576,4.63576,0,0,0,35.88562,67.10706ZM34.506,43.72424a1.38136,1.38136,0,0,1,1.37958-1.37976h18.752a1.38138,1.38138,0,0,1,1.3797,1.37976v18.7522a1.38138,1.38138,0,0,1-1.3797,1.37976h-18.752A1.38136,1.38136,0,0,1,34.506,62.47644Z"/><path class="cls-1" d="M95.6759,67.10706h18.752a4.63592,4.63592,0,0,0,4.63061-4.63062V43.72424a4.63581,4.63581,0,0,0-4.63061-4.63049H95.6759a4.6357,4.6357,0,0,0-4.63061,4.63049v18.7522A4.6358,4.6358,0,0,0,95.6759,67.10706ZM94.2962,43.72424a1.38139,1.38139,0,0,1,1.3797-1.37976h18.752a1.38139,1.38139,0,0,1,1.3797,1.37976v18.7522a1.38139,1.38139,0,0,1-1.3797,1.37976H95.6759a1.38139,1.38139,0,0,1-1.3797-1.37976Z"/><path class="cls-1" d="M118.83643,71.22144H31.16357a1.62543,1.62543,0,0,0,0,3.25085h87.67286a1.62543,1.62543,0,0,0,0-3.25085Z"/></svg>