<svg id="Layer_1" data-name="Layer 1" xmlns="http://www.w3.org/2000/svg" viewBox="0 0 150 140"><defs><style>.cls-1{fill:#2f6f7a;}</style></defs><path class="cls-1" d="M115.7215,84.01893V80.76806a5.46292,5.46292,0,0,0,5.45664-5.45663v-17.705a4.58884,4.58884,0,0,0-3.09991-4.35137l-3.63231-.92669-6.42745,6.42745a1.6258,1.6258,0,0,1-2.29879,0l-6.42761-6.42761-3.6323.92685A4.58891,4.58891,0,0,0,92.56,57.60641v17.705a5.46288,5.46288,0,0,0,5.45648,5.45663v3.25087a8.71727,8.71727,0,0,1-8.70735-8.7075v-17.705a7.83422,7.83422,0,0,1,5.38-7.45477c.03571-.01175.07175-.02239.10826-.03159l4.58788-1.17051a1.62722,1.62722,0,0,1,1.55115.42557l5.93268,5.93268,5.93251-5.93268a1.62578,1.62578,0,0,1,1.55115-.42557l4.58789,1.17051c.0365.0092.07254.01984.10825.03159a7.83431,7.83431,0,0,1,5.38013,7.45477v17.705A8.7173,8.7173,0,0,1,115.7215,84.01893Z"/><path class="cls-1" d="M106.87812,48.60842a8.69345,8.69345,0,1,1,.70478-.02825C107.3475,48.59906,107.1121,48.60842,106.87812,48.60842Zm-.01952-14.16318q-.22119,0-.44382.01778a5.479,5.479,0,0,0-4.9852,4.99853h0a5.45748,5.45748,0,1,0,5.429-5.01631Z"/><path class="cls-1" d="M113.951,108.80586H99.787a3.39984,3.39984,0,0,1-3.396-3.39595V61.14745a1.62544,1.62544,0,1,1,3.25087,0v44.26246a.14524.14524,0,0,0,.14509.14508h14.164a.14524.14524,0,0,0,.14508-.14508V61.14745a1.62544,1.62544,0,1,1,3.25087,0v44.26246A3.39984,3.39984,0,0,1,113.951,108.80586Z"/><path class="cls-1" d="M106.86908,108.80586a1.62542,1.62542,0,0,1-1.62544-1.62544v-28.328a1.62544,1.62544,0,0,1,3.25087,0v28.328A1.62541,1.62541,0,0,1,106.86908,108.80586Z"/><path class="cls-1" d="M51.98351,84.01893V80.76806A5.46288,5.46288,0,0,0,57.44,75.31143v-17.705A4.58891,4.58891,0,0,0,54.34023,53.255l-3.6323-.92685L44.28032,58.7558a1.62551,1.62551,0,0,1-2.29879,0l-6.42745-6.42745-3.63231.92669a4.58884,4.58884,0,0,0-3.09991,4.35137v17.705a5.46292,5.46292,0,0,0,5.45664,5.45663v3.25087a8.7173,8.7173,0,0,1-8.70751-8.7075v-17.705a7.83431,7.83431,0,0,1,5.38013-7.45477c.03571-.01175.07175-.02239.10825-.03159l4.58789-1.17051a1.62691,1.62691,0,0,1,1.55115.42557l5.93251,5.93268,5.93268-5.93268a1.62567,1.62567,0,0,1,1.55115-.42557l4.58788,1.17051c.03651.0092.07255.01984.10826.03159a7.83422,7.83422,0,0,1,5.38,7.45477v17.705A8.71727,8.71727,0,0,1,51.98351,84.01893Z"/><path class="cls-1" d="M43.14,48.60842a8.70749,8.70749,0,0,1-8.68956-9.39831h0a8.708,8.708,0,1,1,9.3945,9.37006C43.60951,48.59906,43.37411,48.60842,43.14,48.60842Zm-5.44854-9.14687a5.45659,5.45659,0,1,0,4.9852-4.99853,5.46873,5.46873,0,0,0-4.9852,4.99853Z"/><path class="cls-1" d="M50.213,108.80586H36.049a3.39984,3.39984,0,0,1-3.39595-3.39595V61.14745a1.62544,1.62544,0,1,1,3.25087,0v44.26246a.14524.14524,0,0,0,.14508.14508H50.213a.14524.14524,0,0,0,.14509-.14508V61.14745a1.62544,1.62544,0,1,1,3.25087,0v44.26246A3.39984,3.39984,0,0,1,50.213,108.80586Z"/><path class="cls-1" d="M43.13092,108.80586a1.62541,1.62541,0,0,1-1.62543-1.62544v-28.328a1.62544,1.62544,0,0,1,3.25087,0v28.328A1.62542,1.62542,0,0,1,43.13092,108.80586Z"/><path class="cls-1" d="M76.77012,59.23185A1.62546,1.62546,0,0,1,75.145,57.60641V52.14994H66.14749a1.62544,1.62544,0,0,1,0-3.25087H76.77044a1.62551,1.62551,0,0,1,1.62543,1.62543v3.49992L88.46627,45.213l-10.0704-8.81148V39.9014a1.62551,1.62551,0,0,1-1.62543,1.62543h-17.705a1.62544,1.62544,0,0,1,0-3.25087H75.145V32.81949a1.6254,1.6254,0,0,1,2.69578-1.22321L92.00492,43.98975a1.62527,1.62527,0,0,1,0,2.4464L77.84078,58.82961A1.6248,1.6248,0,0,1,76.77012,59.23185Z"/><path class="cls-1" d="M73.22988,105.26482a1.62484,1.62484,0,0,1-1.07066-.40223L57.99508,92.46929a1.62528,1.62528,0,0,1,0-2.44641L72.15922,77.62926a1.6255,1.6255,0,0,1,2.69578,1.2232V84.3091h8.99751a1.62544,1.62544,0,0,1,0,3.25087H73.22956a1.62541,1.62541,0,0,1-1.62543-1.62544V82.43445l-10.0704,8.81163,10.0704,8.81132V96.55732a1.62541,1.62541,0,0,1,1.62543-1.62544h17.705a1.62544,1.62544,0,0,1,0,3.25087H74.855v5.45664a1.62591,1.62591,0,0,1-1.62512,1.62543Z"/></svg>