<?xml version="1.0" encoding="UTF-8"?>
<svg width="76px" height="74px" viewBox="0 0 76 74" version="1.1" xmlns="http://www.w3.org/2000/svg" xmlns:xlink="http://www.w3.org/1999/xlink">
    <title>4C822B52-8579-4031-98B7-AD9A8EC37625</title>
    <g id="Page-1" stroke="none" stroke-width="1" fill="none" fill-rule="evenodd">
        <g id="Homepage" transform="translate(-1103.000000, -3457.000000)">
            <g id="Group-3" transform="translate(747.000000, 3398.000000)">
                <g id="Go" transform="translate(356.000000, 59.000000)">
                    <path d="M37.6951337,0 C16.8769654,0 0,16.5654492 0,37 C0,57.4345508 16.8769654,74 37.6951337,74 C58.5133021,74 75.3902675,57.4345508 75.3902675,37 C75.3902675,16.5654492 58.5133021,0 37.6951337,0 Z" id="Shape" fill="#F3F3F3"></path>
                    <g id="noun_Arrow_1255764" transform="translate(25.667729, 26.850392)" fill="#2F6F7A" fill-rule="nonzero">
                        <g id="Path">
                            <polygon transform="translate(12.225198, 10.156863) scale(-1, 1) translate(-12.225198, -10.156863) " points="24.4503954 8.53241449 6.5388695 8.53241449 13.1715593 2.37575558 10.9484253 0 0 10.1568627 10.9484253 20.3137255 13.1715593 17.9379699 6.5388695 11.781311 24.4503954 11.781311"></polygon>
                        </g>
                    </g>
                </g>
            </g>
        </g>
    </g>
</svg>