<svg width="534" height="436" viewBox="0 0 534 436" xmlns="http://www.w3.org/2000/svg">
    <g fill="none" fill-rule="evenodd">
        <path fill-opacity=".155" fill="#2F6F7A" d="M247.764 173.618.93 436h92.064l246.834-262.382z"/>
        <path fill="#2F6E79" d="M377.004 36.13h96.812l-78.55 82.972h-94.771z"/>
        <path d="M475.597 71.076a1.386 1.386 0 0 1-1.003-2.342l56.998-59.816a1.386 1.386 0 0 1 2.006 1.914L476.6 70.646c-.272.286-.637.43-1.003.43M233.246 305.965a1.384 1.384 0 0 1-1.013-2.331l126.965-135.705a1.387 1.387 0 0 1 2.026 1.894L234.259 305.526c-.275.293-.642.44-1.013.44" fill="#FFC844"/>
        <path fill="#2F6E79" d="M209.048 119.064h92.064l-53.348 54.555H155.7z"/>
        <path fill="#FFC844" d="M361.193 0h97.023l-78.535 82.972h-97.024z"/>
        <path d="M269.826 235.41h49.554L434.23 113.27h-49.552L269.826 235.41zm50.902 3.118h-58.114l120.717-128.375h58.114L320.728 238.528z" fill="#2F6E79"/>
        <path d="m375.008 152.378-3.188.853-7.992 2.143-3.189.854 2.335 2.333 5.85 5.853 2.334 2.333.855-3.187 2.142-7.994.853-3.188zm-2.695 2.695-2.141 7.992-5.851-5.85 7.992-2.142zM386.277 141.109l-3.188.854-7.993 2.142-3.188.854 2.334 2.333 5.852 5.853 2.333 2.333.855-3.188 2.141-7.993.854-3.188zm-2.695 2.695-2.141 7.993-5.852-5.852 7.993-2.141zM397.546 129.84l-3.188.854-7.994 2.143-3.187.854 2.333 2.333 5.853 5.852 2.333 2.333.855-3.188 2.142-7.993.853-3.188zm-2.695 2.695-2.141 7.993-5.851-5.851 7.992-2.142z" fill="#FFC844"/>
    </g>
</svg>
