<svg width="154" height="72" viewBox="0 0 154 72" xmlns="http://www.w3.org/2000/svg">
    <defs>
        <filter color-interpolation-filters="auto" id="a">
            <feColorMatrix in="SourceGraphic" values="0 0 0 0 0.184314 0 0 0 0 0.435294 0 0 0 0 0.478431 0 0 0 1.000000 0"/>
        </filter>
        <filter color-interpolation-filters="auto" id="b">
            <feColorMatrix in="SourceGraphic" values="0 0 0 0 0.184314 0 0 0 0 0.435294 0 0 0 0 0.478431 0 0 0 1.000000 0"/>
        </filter>
    </defs>
    <g transform="translate(-1300 -625)" filter="url(#a)" fill="none" fill-rule="evenodd">
        <g transform="translate(1300 625)" filter="url(#b)">
            <path fill="none" d="M0 26h154v18.978H0z"/>
            <path fill="none" d="M0 28.194h154v16.784H0z"/>
            <path d="M80.534 36.794c0-.385-.048-.722-.096-1.06-.096-.336-.193-.673-.337-.962-.193-.433-.433-.77-.722-1.156-.048-.048-.096-.096-.096-.144a5.456 5.456 0 0 0-1.445-1.155 5.928 5.928 0 0 0-2.937-.77c-1.059 0-2.07.288-2.936.77-.385.24-.722.481-1.06.77a8.511 8.511 0 0 0-1.059-.77 5.928 5.928 0 0 0-2.936-.77c-1.06 0-2.07.288-2.937.77a6.07 6.07 0 0 0-1.492 1.203c-.048.048-.097.096-.097.145a4.69 4.69 0 0 0-.722 1.155c-.144.289-.24.626-.337.963-.048.289-.096.53-.096.818V43.438c.048.866.818 1.54 1.685 1.54.866 0 1.589-.674 1.685-1.54v-6.692c.048-1.011 1.059-1.782 2.31-1.782 1.252 0 2.263.819 2.312 1.83V43.34c.048.867.77 1.54 1.685 1.54.866 0 1.588-.673 1.685-1.54v-6.45.047-.192c.048-1.011 1.059-1.782 2.31-1.782 1.252 0 2.264.819 2.311 1.83v6.547c.049.867.819 1.54 1.685 1.54.867 0 1.59-.673 1.686-1.54V36.794h-.049zM102.294 36.794c0-.385-.047-.722-.096-1.06-.096-.336-.192-.673-.336-.962-.193-.433-.434-.77-.723-1.156-.048-.048-.096-.096-.096-.144a5.456 5.456 0 0 0-1.445-1.155 5.927 5.927 0 0 0-2.936-.77 6.07 6.07 0 0 0-2.937.77c-.385.24-.722.481-1.059.77a8.55 8.55 0 0 0-1.06-.77 5.927 5.927 0 0 0-2.936-.77 6.07 6.07 0 0 0-2.937.77 6.079 6.079 0 0 0-1.492 1.203c-.048.048-.096.096-.096.145a4.69 4.69 0 0 0-.723 1.155c-.144.289-.24.626-.336.963-.049.289-.096.53-.096.818V43.438c.047.866.77 1.54 1.684 1.54.915 0 1.589-.674 1.685-1.54v-6.692c.049-1.011 1.06-1.782 2.31-1.782 1.253 0 2.264.819 2.312 1.83V43.34c.048.867.77 1.54 1.685 1.54.866 0 1.589-.673 1.685-1.54v-6.45.047-.192c.048-1.011 1.06-1.782 2.31-1.782 1.253 0 2.264.819 2.311 1.83v6.547c.049.867.771 1.54 1.686 1.54.866 0 1.589-.673 1.685-1.54V36.794h-.049zM126.703 31.594h-.192c-1.59.097-3.13.915-3.756 2.456v-.771c0-.914-.77-1.685-1.684-1.685-.915 0-1.686.77-1.686 1.685v10.062c.049.867.819 1.54 1.686 1.54.866 0 1.588-.673 1.684-1.54V38.48c0-2.455 2.456-3.274 3.9-3.466H126.944c.818-.097 1.444-.819 1.444-1.685-.048-.963-.77-1.734-1.685-1.734zM39.372 34.964c.77 0 1.444.241 1.974.674l.048.049.096.048c.289.192.626.337.963.337.915 0 1.685-.77 1.685-1.685 0-.53-.24-1.011-.626-1.3-1.155-.915-2.6-1.493-4.188-1.493a6.59 6.59 0 0 0-5.248 2.6c-.048.096-.144.145-.192.24-.77 1.06-1.204 2.408-1.204 3.804 0 3.659 2.985 6.644 6.644 6.644 1.588 0 3.033-.53 4.14-1.444a1.62 1.62 0 0 0 .626-1.3c0-.915-.77-1.685-1.685-1.685-.385 0-.77.144-1.06.385-.577.433-1.251.722-2.021.722a3.247 3.247 0 0 1-3.274-3.274c0-.722.24-1.348.626-1.877.626-.915 1.589-1.445 2.696-1.445zM135.224 34.964c.77 0 1.445.241 1.974.674l.048.049.096.048c.29.192.626.337.964.337.914 0 1.684-.77 1.684-1.685 0-.53-.24-1.011-.626-1.3-1.155-.915-2.6-1.493-4.188-1.493a6.59 6.59 0 0 0-5.247 2.6c-.049.096-.145.145-.193.24-.77 1.06-1.203 2.408-1.203 3.804 0 3.659 2.984 6.644 6.643 6.644 1.589 0 3.033-.53 4.14-1.444.386-.29.627-.77.627-1.3 0-.915-.771-1.685-1.686-1.685-.385 0-.77.144-1.059.385-.578.433-1.252.722-2.022.722a3.247 3.247 0 0 1-3.274-3.274c0-.722.241-1.348.626-1.877a3.274 3.274 0 0 1 2.696-1.445zM52.37 31.594a6.522 6.522 0 0 0-4.332 1.637 6.695 6.695 0 0 0-2.311 5.055c0 3.66 2.985 6.644 6.644 6.644a6.522 6.522 0 0 0 4.332-1.637c1.396-1.203 2.263-3.033 2.263-5.007.048-3.755-2.888-6.692-6.595-6.692zm2.215 9.196c-.578.53-1.348.914-2.214.914-1.83 0-3.274-1.54-3.274-3.418 0-1.01.433-1.925 1.059-2.551a3.26 3.26 0 0 1 2.215-.867c1.829 0 3.273 1.54 3.273 3.418 0 .963-.385 1.878-1.059 2.504zM110.912 31.594h-.192c-2.263 0-4.38 1.3-5.44 3.467a6.888 6.888 0 0 0-.77 3.177c0 1.54.48 2.937 1.3 3.996 1.25 1.733 3.321 2.696 5.44 2.696 2.118 0 3.899-.818 4.91-2.07.24-.24.337-.578.337-.963 0-.433-.193-.818-.53-1.107l-.048-.048c-.192-.145-.482-.241-.818-.241-.385 0-.77.192-1.204.53-.096.048-.144.144-.24.192a1.465 1.465 0 0 1-.338.24c-.385.241-.721.386-1.107.434-.096 0-.193.048-.289.048h-.481c-1.589 0-3.322-1.107-3.563-2.648h7.511c.866-.048 1.54-.722 1.54-1.588v-.049c-.048-3.514-2.504-6.017-6.018-6.066zm-2.937 5.007c.193-1.107 1.156-2.262 2.793-2.262h.048c1.782 0 2.6 1.107 2.744 2.262h-5.585zM6.78 30.583l-.097.049c-.048 0-.096 0-.096.048-1.54.481-2.793 1.637-3.033 3.273l-.24-.722v-.048a1.721 1.721 0 0 0-2.023-1.252A1.721 1.721 0 0 0 .04 33.953v.049l2.36 9.532V43.678a1.74 1.74 0 0 0 2.021 1.108c.867-.193 1.396-1.06 1.252-1.926V42.715l-1.155-4.573c-.578-2.36 1.588-3.803 2.936-4.285h.048l.097-.048c.048 0 .096-.048.144-.048.77-.289 1.204-1.156 1.011-1.974-.192-.867-1.107-1.444-1.974-1.204zM23.244 37.083a1.419 1.419 0 0 0-.77-.963l-.096-.048a1.301 1.301 0 0 0-.867-.048c-.337.096-.722.337-1.01.818-.049.096-.097.144-.145.24-.097.097-.193.241-.29.338-.288.337-.625.53-.962.722l-.289.144c-.048 0-.096.048-.144.048h-.048c-.097.049-.145.049-.241.049-1.54.385-3.466-.241-4.092-1.685l2.792-.723 4.381-1.107h.096c.819-.24 1.3-1.059 1.107-1.926v-.048c-.866-3.466-3.85-5.295-7.317-4.525-.048 0-.096 0-.096.048h-.097c-2.214.53-3.948 2.31-4.477 4.67-.24 1.01-.24 2.118.048 3.274.385 1.492 1.156 2.696 2.215 3.562 1.637 1.396 3.851 1.83 5.97 1.3 2.021-.53 3.562-1.733 4.236-3.177.144-.29.193-.626.096-.963zm-7.366-5.97c1.782-.433 2.84.433 3.226 1.492l-2.696.674-2.744.674c-.048-1.059.626-2.407 2.214-2.84zM152.411 39.345h.049c.866-.048 1.54-.722 1.54-1.588v-.048c0-3.563-2.455-6.066-5.97-6.163h-.193c-2.262 0-4.38 1.3-5.44 3.467a6.887 6.887 0 0 0-.77 3.177c0 1.54.482 2.937 1.3 3.996 1.252 1.733 3.322 2.696 5.44 2.696 2.118 0 3.9-.819 4.911-2.07.24-.241.337-.578.337-.963 0-.433-.193-.819-.53-1.107l-.048-.049c-.192-.144-.481-.24-.818-.24-.385 0-.77.192-1.204.53-.096.047-.145.144-.24.192-.097.096-.241.192-.337.24-.386.241-.723.386-1.108.434-.096 0-.192.048-.288.048h-.482c-1.589 0-3.322-1.107-3.562-2.648h7.413v.096zm-4.525-5.006c1.83 0 2.648 1.107 2.792 2.262h-5.584c.192-1.107 1.107-2.262 2.792-2.262z" fill="#5B5C64" fill-rule="nonzero"/>
            <path d="M28.347 43.341c-.289 1.108-1.396 1.782-2.503 1.493-1.107-.29-1.781-1.396-1.493-2.504.29-1.107 1.397-1.781 2.504-1.492 1.107.24 1.781 1.396 1.492 2.503zM27.336 38.864c-.914-.24-1.444-1.155-1.203-2.022l2.407-9.58c.24-.915 1.155-1.445 2.022-1.204.915.24 1.444 1.155 1.203 2.022l-2.407 9.58c-.192.915-1.107 1.445-2.022 1.204z" fill="#6290E7" fill-rule="nonzero"/>
        </g>
    </g>
</svg>
