<svg width="154" height="72" viewBox="0 0 154 72" xmlns="http://www.w3.org/2000/svg">
    <defs>
        <filter color-interpolation-filters="auto" id="a">
            <feColorMatrix in="SourceGraphic" values="0 0 0 0 0.184314 0 0 0 0 0.435294 0 0 0 0 0.478431 0 0 0 1.000000 0"/>
        </filter>
        <filter color-interpolation-filters="auto" id="b">
            <feColorMatrix in="SourceGraphic" values="0 0 0 0 0.184314 0 0 0 0 0.435294 0 0 0 0 0.478431 0 0 0 1.000000 0"/>
        </filter>
    </defs>
    <g transform="translate(14 -625)" filter="url(#a)" fill="none" fill-rule="evenodd">
        <g transform="translate(-14 625)" filter="url(#b)">
            <g fill="#000" fill-rule="nonzero">
                <path d="M0 20h5.402v27.009L0 52.41V20zm10.804 27.009c3.026 0 5.455-2.431 5.455-5.402 0-2.97-2.431-5.402-5.455-5.402v-5.401c1.512 0 2.7-1.19 2.7-2.7 0-1.512-1.188-2.7-2.7-2.7V20a8.093 8.093 0 0 1 8.104 8.103 7.98 7.98 0 0 1-1.62 4.86c2.593 1.946 4.321 5.132 4.321 8.642 0 5.943-4.806 10.803-10.803 10.803v-5.4h-.002zM24.318 30.804V20h5.402v10.801h5.402l-5.402 5.404-5.402-5.401zm10.802 5.401 5.402-5.401V20h5.401v10.801l-5.401 5.402v10.804l-5.402 5.401V36.205zM51.337 20h5.402v27.009l-5.402 5.402V20zM62.14 36.205c2.973 0 5.402-2.43 5.402-5.401 0-2.971-2.432-5.402-5.402-5.402V20c5.943 0 10.803 4.86 10.803 10.801 0 5.944-4.86 10.804-10.803 10.804v-5.4zm5.404 5.402 5.402 5.402v5.402h-5.402V41.607zM78.357 20h5.401v27.009l-5.401 5.402V20zm10.801 0h10.804v5.402H89.158V20zm0 10.804h10.804v5.401H89.158v-5.401zm0 16.205h10.804v5.402H89.158v-5.402zM105.376 20h5.402v27.009l-5.402 5.402V20zm10.801 27.009c2.973 0 5.402-2.431 5.402-5.402V30.804c0-2.971-2.431-5.402-5.402-5.402V20c5.997 0 10.804 4.86 10.804 10.801v10.804c0 5.943-4.807 10.803-10.804 10.803v-5.4zM132.393 30.804c0-5.942 4.86-10.802 10.801-10.802 5.998 0 10.804 4.86 10.804 10.802l-5.402 5.401v-5.401a5.384 5.384 0 0 0-5.402-5.402c-2.97 0-5.401 2.431-5.401 5.402l-5.402 5.401v-5.401h.002zm0 10.803 5.402-5.402v5.402c0 2.97 2.43 5.402 5.401 5.402a5.382 5.382 0 0 0 5.402-5.402L154 36.205v5.402c0 5.943-4.806 10.804-10.804 10.804-5.94 0-10.803-4.86-10.803-10.804z"/>
            </g>
        </g>
    </g>
</svg>
