<svg width="164" height="38" viewBox="0 0 164 38" xmlns="http://www.w3.org/2000/svg">
    <g fill="none" fill-rule="evenodd">
        <path d="M5.978 23.497c0 5.188 3.712 8.425 8.249 8.425 5.517 0 8.249-4.212 8.249-8.425 0-4.16-2.732-8.373-8.249-8.373-4.537 0-8.249 3.236-8.249 8.373zM116.101 10.9l7.417 15.24 7.476-15.24h6.318l-13.794 26.222L109.783 10.9h6.318zm-102.286-.605c3.66 0 7.063 1.696 8.661 4.572l.155-4.006h5.155v25.325h-5.052l-.258-4.11c-1.65 3.287-5.671 4.777-8.764 4.777-7.424 0-13.044-4.725-13.044-13.356 0-8.475 5.878-13.202 13.147-13.202zm135.815 0c3.66 0 7.063 1.696 8.662 4.572l.154-4.006h5.156v25.325h-5.053l-.257-4.11c-1.65 3.287-5.672 4.777-8.765 4.777-7.424 0-13.043-4.725-13.043-13.356 0-8.475 5.877-13.202 13.146-13.202zm-81.717.052c7.836 0 13.198 5.805 13.198 13.202 0 7.55-5.156 13.201-13.198 13.201-7.992 0-13.095-5.65-13.095-13.201 0-7.397 5.207-13.202 13.095-13.202zm29.31 0c7.836 0 13.198 5.805 13.198 13.202 0 7.55-5.155 13.201-13.198 13.201-7.991 0-13.095-5.65-13.095-13.201 0-7.397 5.207-13.202 13.095-13.202zm52.82 4.777c-4.537 0-8.249 3.236-8.249 8.373 0 5.188 3.712 8.425 8.249 8.425 5.516 0 8.249-4.212 8.249-8.425 0-4.16-2.733-8.373-8.25-8.373zm-82.13.103c-4.795 0-7.785 3.853-7.785 8.322 0 4.52 2.99 8.27 7.785 8.27 4.897 0 7.836-3.75 7.836-8.27 0-4.47-3.145-8.322-7.836-8.322zm29.31 0c-4.795 0-7.785 3.853-7.785 8.322 0 4.52 2.99 8.27 7.785 8.27 4.898 0 7.836-3.75 7.836-8.27 0-4.47-3.145-8.322-7.836-8.322z" fill="#2F6F7A"/>
        <path d="M37.628.279v20.958l9.435-10.376h6.736L42.526 22.778l12.82 13.407h-6.84L37.628 24.473v11.712h-5.362V.28h5.362zm23.145 2.929-4.488 4.745h-6.562l4.314-4.745h6.736z" fill="#FFC845"/>
    </g>
</svg>
