<svg width="77" height="74" viewBox="0 0 77 74" xmlns="http://www.w3.org/2000/svg">
    <g fill="none" fill-rule="evenodd">
        <path d="M38.5 0C17.774 0 .971 16.565.971 37S17.774 74 38.5 74c20.726 0 37.529-16.565 37.529-37S59.226 0 38.5 0z" fill="#FFF"/>
        <path d="m47.402 38.346-12.878 7.935a1.628 1.628 0 0 1-1.634.042c-.511-.28-.829-.81-.829-1.388v-15.87c0-.577.318-1.108.83-1.388a1.625 1.625 0 0 1 1.633.042l12.878 7.935c.47.29.756.799.756 1.346s-.286 1.055-.756 1.346z" fill="#2F6F7A"/>
    </g>
</svg>
