<svg width="102" height="19" viewBox="0 0 102 19" xmlns="http://www.w3.org/2000/svg">
    <g fill="#2F6F7A" fill-rule="evenodd">
        <path d="m9.5 14.25-5.584 2.936 1.066-6.218L.465 6.564l6.243-.907L9.5 0l2.792 5.657 6.243.907-4.517 4.404 1.066 6.218zM50.5 14.25l-5.584 2.936 1.066-6.218-4.517-4.404 6.243-.907L50.5 0l2.792 5.657 6.243.907-4.517 4.404 1.066 6.218zM30.5 14.25l-5.584 2.936 1.066-6.218-4.517-4.404 6.243-.907L30.5 0l2.792 5.657 6.243.907-4.517 4.404 1.066 6.218zM72.5 14.25l-5.584 2.936 1.066-6.218-4.517-4.404 6.243-.907L72.5 0l2.792 5.657 6.243.907-4.517 4.404 1.066 6.218zM92.5 14.25l-5.584 2.936 1.066-6.218-4.517-4.404 6.243-.907L92.5 0l2.792 5.657 6.243.907-4.517 4.404 1.066 6.218z"/>
    </g>
</svg>
