<?xml version="1.0" encoding="UTF-8"?>
<svg width="51px" height="50px" viewBox="0 0 51 50" version="1.1" xmlns="http://www.w3.org/2000/svg" xmlns:xlink="http://www.w3.org/1999/xlink">
    <title>B65ADD80-A3DD-4CE0-8D60-D2C2F7D04BB7</title>
    <defs>
        <filter color-interpolation-filters="auto" id="filter-1">
            <feColorMatrix in="SourceGraphic" type="matrix" values="0 0 0 0 1.000000 0 0 0 0 1.000000 0 0 0 0 1.000000 0 0 0 1.000000 0"></feColorMatrix>
        </filter>
    </defs>
    <g id="Page-1" stroke="none" stroke-width="1" fill="none" fill-rule="evenodd">
        <g id="Customers" transform="translate(-694.000000, -942.000000)">
            <g id="Group" transform="translate(544.000000, 872.000000)" filter="url(#filter-1)">
                <g transform="translate(121.500000, 69.997875)">
                    <g id="link" transform="translate(29.490812, 0.000000)" fill="#000000" fill-rule="nonzero">
                        <path d="M46.0957963,3.90465017 C40.8882567,-1.30155006 32.4456927,-1.30155006 27.2394032,3.90465017 L19.7993467,11.3415816 C20.3884315,11.277407 20.9834628,11.2498577 21.5815924,11.2498577 C23.4642852,11.2498577 25.2953705,11.54911 27.0287766,12.1256322 L31.2447907,7.91140379 C32.6929267,6.46192851 34.618477,5.66531532 36.6661711,5.66531532 C38.7142224,5.66531532 40.6397727,6.46191958 42.0875516,7.91140379 C43.5356875,9.35775405 44.3319436,11.2805365 44.3319436,13.3309985 C44.3319436,15.3786926 43.5356875,17.3042429 42.0875516,18.7505932 L33.8390068,26.9991379 C32.3908708,28.4493275 30.4653205,29.2455836 28.4176264,29.2455836 C26.3668072,29.2455836 24.4443819,28.4493275 22.9949067,26.9998522 C22.2900352,26.2977665 21.7407007,25.47993 21.362305,24.5887625 C20.4223871,24.6407299 19.5434519,25.0313551 18.8720182,25.7024317 L16.6747694,27.9025377 C17.2760597,29.0162068 18.0479048,30.0659469 18.9878227,31.0094362 C24.1940229,36.2159043 32.6379263,36.2159043 37.8451086,31.0094362 L46.0949927,22.7577665 C51.2997643,17.5519234 51.2997643,9.11123433 46.0953415,3.90494481 L46.0957963,3.90465017 Z" id="Path"></path>
                        <path d="M28.5063771,38.7461646 C26.6205592,38.7461646 24.7713487,38.4409837 22.9982103,37.8397291 L18.7532673,42.0846721 C17.3069171,43.5341474 15.3812774,44.3307605 13.3336726,44.3307605 C11.2859785,44.3307605 9.36355321,43.5345045 7.91407792,42.0846721 C6.46460263,40.6379647 5.66798944,38.7126822 5.66798944,36.6650774 C5.66798944,34.6173833 6.4645937,32.6914758 7.91407792,31.2423576 L16.1626227,22.9938129 C17.6120979,21.5474626 19.5346125,20.7508494 21.5822174,20.7508494 C23.6330365,20.7508494 25.5554618,21.5474537 27.0032406,22.9938129 C27.7084603,23.6986843 28.2587859,24.5165923 28.6389673,25.4076705 C29.5820102,25.3588416 30.462374,24.9650779 31.1337184,24.2940013 L33.3278422,22.0967525 C32.7265519,20.9796012 31.9530104,19.9301289 31.0116639,18.9870861 C25.8054637,13.7808858 17.3615603,13.7808858 12.1552708,18.9870861 L3.90672608,27.2387558 C-1.30224203,32.4452239 -1.30224203,40.885288 3.90672608,46.0951489 C9.1129263,51.301617 17.5532582,51.301617 22.7595477,46.0951489 L30.1871041,38.6673247 C29.6332517,38.7189438 29.0734349,38.7468458 28.5087878,38.7468458 L28.5063771,38.7461646 Z" id="Path"></path>
                    </g>
                </g>
            </g>
        </g>
    </g>
</svg>