<svg width="629" height="515" viewBox="0 0 629 515" xmlns="http://www.w3.org/2000/svg">
    <g fill="none" fill-rule="evenodd">
        <path fill-opacity=".155" fill="#2F6F7A" d="M337.737 205.077 629 515H520.365L229.1 205.077z"/>
        <path fill="#2F6E79" d="M185.233 42.676H70.995l92.69 98.006h111.83z"/>
        <path d="M68.893 83.954a1.635 1.635 0 0 0 1.184-2.766L2.819 10.534a1.635 1.635 0 0 0-2.312-.055 1.639 1.639 0 0 0-.055 2.315L67.71 83.446c.32.338.751.508 1.183.508M354.868 361.404c.4 0 .801-.146 1.117-.44a1.639 1.639 0 0 0 .078-2.314L206.244 198.357a1.637 1.637 0 0 0-2.39 2.237l149.818 160.29c.325.347.758.52 1.196.52" fill="#FFC844"/>
        <path fill="#2F6E79" d="M383.421 140.637H274.786l62.95 64.44h108.635z"/>
        <path fill="#FFC844" d="M203.89 0H89.403l92.672 98.006h114.487z"/>
        <path d="M311.703 278.065H253.23l-135.525-144.27h58.472l135.526 144.27zm-60.064 3.683h68.574L177.768 130.112h-68.575L251.64 281.748z" fill="#2F6E79"/>
        <path d="m187.588 179.987 3.762 1.009 9.431 2.531 3.763 1.009-2.755 2.755-6.904 6.913-2.754 2.756-1.009-3.764-2.527-9.443-1.007-3.766zm3.18 3.184 2.527 9.44 6.905-6.91-9.432-2.53zM174.29 166.677l3.763 1.008 9.431 2.531 3.763 1.009-2.755 2.756-6.905 6.913-2.753 2.756-1.009-3.766-2.527-9.441-1.007-3.766zm3.181 3.183 2.527 9.441 6.904-6.911-9.43-2.53zM160.993 153.366l3.762 1.009 9.433 2.53 3.76 1.01-2.752 2.755-6.906 6.913-2.753 2.756-1.01-3.766-2.526-9.44-1.008-3.767zm3.18 3.184 2.528 9.44 6.904-6.91-9.431-2.53z" fill="#FFC844"/>
    </g>
</svg>
